<svg width="26" height="20" viewBox="0 0 26 20" fill="none" xmlns="http://www.w3.org/2000/svg">
<path fill-rule="evenodd" clip-rule="evenodd" d="M14.6164 0.946072L23.0911 5.26948C23.4827 5.46927 23.4888 6.03729 23.1016 6.24579L12.0949 12.1729C11.4812 12.5033 10.749 12.5115 10.1283 12.1949L3.21772 8.6694C2.37582 8.3243 1.43448 8.95457 1.43448 9.90392C1.43448 10.6672 1.85713 11.365 2.52623 11.7063L9.45467 15.2409C9.87761 14.8015 10.4665 14.529 11.1178 14.529C11.7505 14.529 12.3243 14.7861 12.7443 15.2036L21.3739 10.5566C21.3503 10.4207 21.338 10.2808 21.338 10.138C21.338 8.8245 22.3816 7.75969 23.669 7.75969C24.9564 7.75969 26 8.8245 26 10.138C26 11.4516 24.9564 12.5164 23.669 12.5164C23.0395 12.5164 22.4683 12.2618 22.0488 11.8481L13.4144 16.4977C13.437 16.6308 13.4488 16.7677 13.4488 16.9073C13.4488 18.2209 12.4052 19.2857 11.1178 19.2857C9.83044 19.2857 8.78679 18.2209 8.78679 16.9073C8.78679 16.7859 8.79571 16.6665 8.81296 16.5499L1.78416 12.9641C0.690708 12.4063 0 11.266 0 10.0187V9.32389C0 8.37392 0.515303 7.50197 1.33873 7.05861L12.6498 0.968119C13.2635 0.637642 13.9957 0.629433 14.6164 0.946072ZM11.1178 17.8221C11.613 17.8221 12.0144 17.4125 12.0144 16.9073C12.0144 16.4021 11.613 15.9926 11.1178 15.9926C10.6227 15.9926 10.2213 16.4021 10.2213 16.9073C10.2213 17.4125 10.6227 17.8221 11.1178 17.8221ZM24.5655 10.138C24.5655 10.6433 24.1641 11.0528 23.669 11.0528C23.1738 11.0528 22.7724 10.6433 22.7724 10.138C22.7724 9.63282 23.1738 9.22327 23.669 9.22327C24.1641 9.22327 24.5655 9.63282 24.5655 10.138Z" fill="#7333FF"/>
</svg>
