<svg width="20" height="17" viewBox="0 0 20 17" fill="none" xmlns="http://www.w3.org/2000/svg">
<path d="M18.4036 1.99771L20 0.35892V0H14.4714L10.5312 10.5283L6.04948 0H0.252604V0.35892L2.11719 2.76841C2.29948 2.94648 2.39323 3.20802 2.36979 3.46956V12.9378C2.42708 13.28 2.32552 13.6278 2.10156 13.8754L0 16.6105V16.9638H5.95312V16.6049L3.85417 13.8782C3.62621 13.631 3.51931 13.2842 3.5651 12.9406V4.74943L8.79167 16.9694H9.39844L13.8932 4.74943V14.4848C13.8932 14.7408 13.8932 14.7936 13.737 14.9633L12.1198 16.6411V17H19.9635V16.6411L18.4036 15.0023C18.2682 14.891 18.1979 14.7046 18.2266 14.5237V2.47627C18.1991 2.29414 18.267 2.11053 18.4036 1.99771Z" fill="#7333FF"/>
</svg>
